<svg width="60" height="59" viewBox="0 0 60 59" fill="none" xmlns="http://www.w3.org/2000/svg">
<path d="M25.4239 34.1273C21.5605 30.3022 15.5663 29.9236 4.27481 29.9236C0.959067 29.9236 0.789795 30.1428 0.789795 33.4997C0.789795 36.8367 0.988937 36.9961 4.19515 36.9961C7.14248 36.9961 9.69151 37.026 11.8721 37.1256C13.2661 35.223 15.5065 33.9779 18.0356 33.9779C22.2475 33.9779 25.6628 37.4045 25.6628 41.6082C25.6628 44.1583 24.4082 46.4095 22.4865 47.7941C22.6159 50.2147 22.6458 53.0338 22.6458 56.1616C22.6458 58.3929 22.7155 58.8611 25.5533 58.8611H27.1365C29.5959 58.8611 29.7254 58.4427 29.7254 56.0321C29.7353 44.8954 29.3669 38.0321 25.4239 34.1273Z" fill="#007988"/>
<path d="M18.0457 37.4743C15.7556 37.4743 13.9036 39.3271 13.9036 41.6182C13.9036 43.9093 15.7556 45.762 18.0457 45.762C20.3359 45.762 22.1879 43.9093 22.1879 41.6182C22.1879 39.3271 20.3359 37.4743 18.0457 37.4743Z" fill="#51B1E9"/>
<path d="M26.1608 0C22.8252 0 22.6658 0.199231 22.6658 3.40676C22.6658 6.35529 22.636 8.90537 22.5364 11.0869C24.4382 12.4815 25.6829 14.7227 25.6829 17.2529C25.6829 21.4665 22.2576 24.8832 18.0557 24.8832C15.5166 24.8832 13.2663 23.6281 11.8722 21.7056C9.45265 21.8351 6.64473 21.865 3.50822 21.865C1.27781 21.865 0.809814 21.9347 0.809814 24.7737V26.3575C0.809814 28.8179 1.22802 28.9474 3.63766 28.9474C14.7897 28.9474 21.6502 28.5789 25.5534 24.6342C29.377 20.7692 29.7554 14.7726 29.7554 3.47649C29.7354 0.169347 29.5164 0 26.1608 0Z" fill="#007988"/>
<path d="M22.1879 17.2529C22.1879 14.9618 20.3359 13.109 18.0457 13.109C15.7556 13.109 13.9036 14.9618 13.9036 17.2529C13.9036 19.544 15.7556 21.3968 18.0457 21.3968C20.3359 21.3968 22.1879 19.544 22.1879 17.2529Z" fill="#51B1E9"/>
<path d="M56.0323 29.9236C44.7409 29.9236 38.7466 30.3022 34.8832 34.1273C30.9402 38.0321 30.5718 44.8954 30.5718 56.052C30.5718 58.4626 30.7012 58.881 33.1607 58.881H34.7438C37.5816 58.881 37.6513 58.4128 37.6513 56.1815C37.6513 53.0437 37.6812 50.2247 37.8107 47.8141C35.8889 46.4294 34.6343 44.1782 34.6343 41.6281C34.6343 37.4245 38.0596 33.9978 42.2615 33.9978C44.7906 33.9978 47.031 35.2429 48.425 37.1455C50.6056 37.0459 53.1646 37.016 56.102 37.016C59.3082 37.016 59.5074 36.8567 59.5074 33.5196C59.5173 30.1428 59.348 29.9236 56.0323 29.9236Z" fill="#007988"/>
<path d="M42.2716 37.4743C39.9814 37.4743 38.1294 39.3271 38.1294 41.6182C38.1294 43.9093 39.9814 45.762 42.2716 45.762C44.5617 45.762 46.4138 43.9093 46.4138 41.6182C46.4138 39.3271 44.5617 37.4743 42.2716 37.4743Z" fill="#51B1E9"/>
<path d="M56.819 21.865C53.6824 21.865 50.8646 21.8351 48.445 21.7056C47.0609 23.6281 44.8106 24.8832 42.2616 24.8832C38.0497 24.8832 34.6344 21.4566 34.6344 17.2529C34.6344 14.7227 35.879 12.4815 37.7808 11.0869C37.6813 8.90537 37.6514 6.34533 37.6514 3.40676C37.6514 0.199231 37.4921 0 34.1564 0C30.8008 0 30.5818 0.169342 30.5818 3.48644C30.5818 14.7825 30.9502 20.7792 34.7738 24.6442C38.677 28.5888 45.5375 28.9574 56.6895 28.9574C59.0992 28.9574 59.5174 28.8279 59.5174 26.3675V24.7836C59.5174 21.9447 59.0494 21.865 56.819 21.865Z" fill="#007988"/>
<path d="M42.2716 13.0991C39.9814 13.0991 38.1294 14.9519 38.1294 17.2429C38.1294 19.534 39.9814 21.3868 42.2716 21.3868C44.5617 21.3868 46.4138 19.534 46.4138 17.2429C46.4138 14.9519 44.5617 13.0991 42.2716 13.0991Z" fill="#51B1E9"/>
</svg>
