<svg width="246.000168" height="110.000000" viewBox="0 0 246 110" fill="none" xmlns="http://www.w3.org/2000/svg" xmlns:xlink="http://www.w3.org/1999/xlink">
	<desc>
			Created with Pixso.
	</desc>
	<defs/>
	<path id="Vector" d="M82.2039 97.1677C81.5548 97.1677 81.2363 96.8511 81.2363 96.2059L81.2363 81.2064C81.2363 80.5612 81.567 80.2446 82.2039 80.2446L87.7642 80.2446C89.4298 80.2446 90.924 80.5977 92.2222 81.316C93.5204 82.0221 94.5247 83.0205 95.235 84.311C95.9454 85.6016 96.3128 87.0625 96.3128 88.7183C96.3128 90.3741 95.9576 91.8473 95.235 93.1378C94.5247 94.4162 93.5204 95.4145 92.2222 96.1207C90.924 96.8268 89.442 97.192 87.7642 97.192L82.2039 97.192L82.2039 97.1677ZM87.3967 93.1987C88.7072 93.1987 89.7482 92.8091 90.5076 92.0177C91.2669 91.2263 91.6466 90.1184 91.6466 88.7061C91.6466 87.2939 91.2669 86.186 90.5076 85.3946C89.7482 84.6032 88.7072 84.2136 87.3967 84.2136L85.8536 84.2136L85.8536 93.1987L87.3967 93.1987Z" fill="#51B1E9" fill-opacity="1.000000" fill-rule="nonzero"/>
	<path id="Vector" d="M103.54 96.2059C103.54 96.8511 103.209 97.1677 102.56 97.1677L99.8777 97.1677C99.2286 97.1677 98.9102 96.8511 98.9102 96.2059L98.9102 81.2064C98.9102 80.5612 99.2286 80.2324 99.8777 80.2324L102.56 80.2324C103.209 80.2324 103.54 80.5612 103.54 81.2064L103.54 96.2059Z" fill="#51B1E9" fill-opacity="1.000000" fill-rule="nonzero"/>
	<path id="Vector" d="M115.443 80.2324C116.007 80.2324 116.374 80.5003 116.546 81.0238L121.628 96.0719C121.739 96.4007 121.726 96.6685 121.592 96.8755C121.445 97.0825 121.2 97.1799 120.845 97.1799L118.101 97.1799C117.525 97.1799 117.158 96.912 117.011 96.3641L116.301 93.9292L111.206 93.9292L110.496 96.3641C110.336 96.8998 109.981 97.1799 109.405 97.1799L106.662 97.1799C106.307 97.1799 106.062 97.0825 105.915 96.8755C105.78 96.6685 105.756 96.4128 105.878 96.0719L110.961 81.0238C111.132 80.5003 111.512 80.2324 112.063 80.2324L115.443 80.2324ZM112.186 90.435L115.345 90.435L113.766 85.005L112.186 90.435Z" fill="#51B1E9" fill-opacity="1.000000" fill-rule="nonzero"/>
	<path id="Vector" d="M138.444 87.9513C139.093 87.9513 139.411 88.207 139.411 88.7061C139.411 91.3968 138.664 93.5274 137.158 95.1101C135.651 96.6807 133.667 97.4721 131.193 97.4721C130.03 97.4721 128.903 97.2407 127.837 96.7903C126.772 96.3398 125.841 95.7189 125.057 94.9519C124.273 94.1727 123.649 93.2474 123.183 92.1638C122.718 91.0802 122.485 89.9358 122.485 88.7183C122.485 87.513 122.706 86.3564 123.159 85.2728C123.612 84.1893 124.224 83.264 124.996 82.4848C125.768 81.7056 126.686 81.0968 127.776 80.6342C128.854 80.1837 130.005 79.9524 131.205 79.9524C133.018 79.9524 134.61 80.3785 135.957 81.243C137.305 82.1074 138.297 83.3857 138.921 85.1024C139.044 85.4311 139.031 85.699 138.872 85.9059C138.713 86.1129 138.468 86.2103 138.101 86.2103L135.137 86.2103C134.647 86.2103 134.267 85.9668 133.998 85.4676C133.398 84.4328 132.442 83.9214 131.132 83.9214C130.042 83.9214 129.099 84.3719 128.315 85.2728C127.531 86.1738 127.139 87.3182 127.139 88.7061C127.139 90.0941 127.531 91.2385 128.315 92.1395C129.099 93.0404 130.091 93.4909 131.291 93.4909C132.136 93.4909 132.859 93.2717 133.447 92.8456C134.047 92.4195 134.451 91.8351 134.684 91.0924L131.806 91.0924C131.156 91.0924 130.838 90.7759 130.838 90.1306L130.838 88.9253C130.838 88.28 131.169 87.9635 131.806 87.9635L138.444 87.9635L138.444 87.9513Z" fill="#51B1E9" fill-opacity="1.000000" fill-rule="nonzero"/>
	<path id="Vector" d="M141.983 81.2064C141.983 80.5612 142.314 80.2446 142.951 80.2446L146.147 80.2446C146.686 80.2446 147.066 80.4881 147.274 80.9751L151.708 90.5932L151.708 81.2186C151.708 80.5733 152.038 80.2568 152.675 80.2568L154.966 80.2568C155.615 80.2568 155.933 80.5733 155.933 81.2186L155.933 96.218C155.933 96.8633 155.615 97.192 154.966 97.192L151.781 97.192C151.242 97.192 150.863 96.9485 150.655 96.4615L146.221 86.8434L146.221 96.218C146.221 96.8633 145.903 97.192 145.253 97.192L142.951 97.192C142.302 97.192 141.983 96.8633 141.983 96.218L141.983 81.2064Z" fill="#51B1E9" fill-opacity="1.000000" fill-rule="nonzero"/>
	<path id="Vector" d="M159.742 93.1378C158.933 91.7986 158.529 90.3132 158.529 88.694C158.529 87.0747 158.933 85.5894 159.742 84.2501C160.55 82.9109 161.665 81.8517 163.085 81.0847C164.506 80.3177 166.074 79.9281 167.801 79.9281C169.515 79.9281 171.095 80.3177 172.516 81.0847C173.936 81.8517 175.051 82.9109 175.859 84.2501C176.668 85.5894 177.072 87.0747 177.072 88.694C177.072 90.3132 176.668 91.7986 175.859 93.1378C175.051 94.4771 173.936 95.5363 172.516 96.3033C171.095 97.0703 169.527 97.4599 167.801 97.4599C166.086 97.4599 164.506 97.0703 163.085 96.3033C161.665 95.5363 160.55 94.4771 159.742 93.1378ZM164.494 85.285C163.612 86.1981 163.171 87.3426 163.171 88.7062C163.171 90.0697 163.612 91.2142 164.494 92.1273C165.376 93.0404 166.478 93.503 167.788 93.503C169.099 93.503 170.201 93.0404 171.083 92.1273C171.965 91.2142 172.406 90.0697 172.406 88.7062C172.406 87.3426 171.965 86.1981 171.083 85.285C170.201 84.3719 169.099 83.9092 167.788 83.9092C166.478 83.9092 165.388 84.3719 164.494 85.285Z" fill="#51B1E9" fill-opacity="1.000000" fill-rule="nonzero"/>
	<path id="Vector" d="M179.963 92.5291C180.367 92.0786 180.82 92.0421 181.334 92.4195C182.473 93.2596 183.661 93.6735 184.91 93.6735C185.498 93.6735 185.976 93.5396 186.343 93.2839C186.711 93.0282 186.895 92.6995 186.895 92.2977C186.895 91.8595 186.686 91.4942 186.282 91.1898C185.878 90.8855 185.106 90.6176 183.98 90.3741C182.412 90.0332 181.175 89.4123 180.256 88.5114C179.338 87.6104 178.885 86.5147 178.885 85.1998C178.885 83.6779 179.436 82.4117 180.55 81.4256C181.665 80.4394 183.11 79.9402 184.886 79.9402C186.466 79.9402 187.813 80.3298 188.94 81.0969C190.054 81.8639 190.765 82.9352 191.046 84.2988C191.12 84.6154 191.071 84.8711 190.899 85.0537C190.728 85.2363 190.471 85.3215 190.14 85.3215L187.605 85.3215C187.335 85.3215 187.127 85.2607 186.968 85.1267C186.809 84.9928 186.674 84.7858 186.527 84.4936C186.245 83.9336 185.756 83.6414 185.082 83.6414C184.617 83.6414 184.237 83.751 183.943 83.9701C183.649 84.1893 183.514 84.4693 183.514 84.8102C183.514 85.2241 183.71 85.5894 184.09 85.9059C184.47 86.2225 185.143 86.4903 186.111 86.7095C187.874 87.1113 189.222 87.7565 190.14 88.6209C191.071 89.4975 191.536 90.6176 191.536 91.9812C191.536 93.5396 190.961 94.8423 189.785 95.8772C188.621 96.912 187.09 97.4355 185.192 97.4355C182.951 97.4355 180.991 96.4859 179.313 94.5744C178.934 94.124 178.934 93.6735 179.338 93.2109L179.963 92.5291Z" fill="#51B1E9" fill-opacity="1.000000" fill-rule="nonzero"/>
	<path id="Vector" d="M196.361 84.1893L193.373 84.1893C192.724 84.1893 192.405 83.8727 192.405 83.2275L192.405 81.2064C192.405 80.5612 192.724 80.2324 193.373 80.2324L203.991 80.2324C204.64 80.2324 204.959 80.5612 204.959 81.2064L204.959 83.2275C204.959 83.8727 204.64 84.1893 203.991 84.1893L201.003 84.1893L201.003 96.2059C201.003 96.8511 200.684 97.1677 200.035 97.1677L197.341 97.1677C196.692 97.1677 196.373 96.8511 196.373 96.2059L196.373 84.1893L196.361 84.1893Z" fill="#51B1E9" fill-opacity="1.000000" fill-rule="nonzero"/>
	<path id="Vector" d="M211.879 96.2059C211.879 96.8511 211.548 97.1677 210.899 97.1677L208.217 97.1677C207.567 97.1677 207.249 96.8511 207.249 96.2059L207.249 81.2064C207.249 80.5612 207.567 80.2324 208.217 80.2324L210.899 80.2324C211.548 80.2324 211.879 80.5612 211.879 81.2064L211.879 96.2059Z" fill="#51B1E9" fill-opacity="1.000000" fill-rule="nonzero"/>
	<path id="Vector" d="M223.416 97.4599C221.75 97.4599 220.232 97.0703 218.86 96.3033C217.488 95.5363 216.423 94.4771 215.639 93.1378C214.867 91.7986 214.476 90.3132 214.476 88.694C214.476 87.0382 214.843 85.5529 215.578 84.2136C216.313 82.8866 217.341 81.8395 218.664 81.0725C219.999 80.3055 221.506 79.9281 223.183 79.9281C225.008 79.9281 226.613 80.3907 227.984 81.316C229.356 82.2413 230.336 83.544 230.899 85.2241C231.009 85.5529 230.973 85.8207 230.814 86.0155C230.654 86.2103 230.397 86.3077 230.054 86.3077L227.127 86.3077C226.637 86.3077 226.258 86.052 226 85.5407C225.731 85.0293 225.351 84.6276 224.874 84.3354C224.396 84.0432 223.857 83.9092 223.269 83.9092C222.032 83.9092 221.028 84.3597 220.269 85.2607C219.509 86.1616 219.13 87.306 219.13 88.694C219.13 90.0697 219.546 91.2142 220.367 92.1273C221.187 93.0282 222.24 93.4909 223.514 93.4909C225.253 93.4909 226.723 92.8578 227.923 91.5794C228.352 91.1168 228.805 91.0681 229.283 91.4211L230.275 92.1516C230.777 92.5291 230.875 92.9674 230.556 93.4543C228.744 96.1207 226.368 97.4599 223.416 97.4599Z" fill="#51B1E9" fill-opacity="1.000000" fill-rule="nonzero"/>
	<path id="Vector" d="M234.426 92.5291C234.831 92.0786 235.284 92.0421 235.798 92.4195C236.937 93.2596 238.125 93.6735 239.374 93.6735C239.962 93.6735 240.44 93.5396 240.807 93.2839C241.175 93.0282 241.358 92.6995 241.358 92.2977C241.358 91.8595 241.15 91.4942 240.746 91.1898C240.342 90.8855 239.57 90.6176 238.444 90.3741C236.876 90.0332 235.639 89.4123 234.72 88.5114C233.802 87.6104 233.349 86.5147 233.349 85.1998C233.349 83.6779 233.9 82.4117 235.014 81.4256C236.129 80.4394 237.574 79.9402 239.35 79.9402C240.93 79.9402 242.277 80.3298 243.404 81.0969C244.518 81.8639 245.229 82.9352 245.51 84.2988C245.584 84.6154 245.535 84.8711 245.363 85.0537C245.192 85.2363 244.935 85.3215 244.604 85.3215L242.069 85.3215C241.799 85.3215 241.591 85.2607 241.432 85.1267C241.273 84.9928 241.138 84.7858 240.991 84.4936C240.709 83.9336 240.219 83.6414 239.546 83.6414C239.08 83.6414 238.701 83.751 238.407 83.9701C238.113 84.1893 237.978 84.4693 237.978 84.8102C237.978 85.2241 238.174 85.5894 238.554 85.9059C238.933 86.2225 239.607 86.4903 240.575 86.7095C242.338 87.1113 243.685 87.7565 244.604 88.6209C245.535 89.4975 246 90.6176 246 91.9812C246 93.5396 245.425 94.8423 244.249 95.8772C243.085 96.912 241.554 97.4355 239.656 97.4355C237.415 97.4355 235.455 96.4859 233.777 94.5744C233.398 94.124 233.398 93.6735 233.802 93.2109L234.426 92.5291Z" fill="#51B1E9" fill-opacity="1.000000" fill-rule="nonzero"/>
	<path id="Vector" d="M0 81.2064C0 80.5612 0.330679 80.2446 0.967541 80.2446L10.1163 80.2446C10.7654 80.2446 11.0961 80.5612 11.0961 81.2064L11.0961 83.1179C11.0961 83.7631 10.7654 84.0919 10.1163 84.0919L4.62949 84.0919L4.62949 86.7703L9.52843 86.7703C10.1775 86.7703 10.496 87.0991 10.496 87.7443L10.496 89.5827C10.496 90.228 10.1775 90.5567 9.52843 90.5567L4.62949 90.5567L4.62949 93.3448L10.3368 93.3448C10.9859 93.3448 11.3043 93.6613 11.3043 94.3066L11.3043 96.218C11.3043 96.8633 10.9859 97.192 10.3368 97.192L0.967541 97.192C0.318432 97.192 0 96.8633 0 96.218L0 81.2064Z" fill="#007988" fill-opacity="1.000000" fill-rule="nonzero"/>
	<path id="Vector" d="M20.3915 85.3702L22.5348 80.9386C22.7675 80.4638 23.1349 80.2203 23.6616 80.2203L26.5887 80.2203C26.9684 80.2203 27.2256 80.3298 27.3603 80.549C27.4828 80.7681 27.4705 81.036 27.2868 81.3647L23.3676 88.4505L27.5807 95.9867C27.7644 96.3276 27.8012 96.6077 27.6665 96.8268C27.5317 97.0459 27.2746 97.1555 26.8949 97.1555L23.9678 97.1555C23.4289 97.1555 23.0492 96.9242 22.8288 96.4494L20.3915 91.5551L17.9543 96.4494C17.7216 96.912 17.342 97.1555 16.8031 97.1555L13.876 97.1555C13.4963 97.1555 13.2391 97.0459 13.1044 96.8268C12.9697 96.6077 13.0064 96.3276 13.1901 95.9867L17.4154 88.4505L13.4963 81.3647C13.3126 81.036 13.2881 80.756 13.4228 80.549C13.5575 80.3298 13.8147 80.2203 14.1944 80.2203L17.1215 80.2203C17.6481 80.2203 18.0278 80.4638 18.2483 80.9386L20.3915 85.3702Z" fill="#007988" fill-opacity="1.000000" fill-rule="nonzero"/>
	<path id="Vector" d="M32.933 84.1893L29.9446 84.1893C29.2955 84.1893 28.9648 83.8727 28.9648 83.2275L28.9648 81.2064C28.9648 80.5612 29.2833 80.2324 29.9446 80.2324L40.5631 80.2324C41.2122 80.2324 41.5306 80.5612 41.5306 81.2064L41.5306 83.2275C41.5306 83.8727 41.2122 84.1893 40.5631 84.1893L37.5747 84.1893L37.5747 96.2059C37.5747 96.8511 37.2563 97.1677 36.6072 97.1677L33.9128 97.1677C33.2637 97.1677 32.9452 96.8511 32.9452 96.2059L32.9452 84.1893L32.933 84.1893Z" fill="#007988" fill-opacity="1.000000" fill-rule="nonzero"/>
	<path id="Vector" d="M43.7842 81.2064C43.7842 80.5612 44.1149 80.2446 44.7517 80.2446L53.9005 80.2446C54.5496 80.2446 54.868 80.5612 54.868 81.2064L54.868 83.1179C54.868 83.7631 54.5373 84.0919 53.9005 84.0919L48.4137 84.0919L48.4137 86.7703L53.3126 86.7703C53.9617 86.7703 54.2802 87.0991 54.2802 87.7443L54.2802 89.5827C54.2802 90.228 53.9617 90.5567 53.3126 90.5567L48.4137 90.5567L48.4137 93.3448L54.1209 93.3448C54.77 93.3448 55.0885 93.6613 55.0885 94.3066L55.0885 96.218C55.0885 96.8633 54.77 97.192 54.1209 97.192L44.7517 97.192C44.1026 97.192 43.7842 96.8633 43.7842 96.218L43.7842 81.2064Z" fill="#007988" fill-opacity="1.000000" fill-rule="nonzero"/>
	<path id="Vector" d="M57.8691 81.2064C57.8691 80.5612 58.1998 80.2446 58.8367 80.2446L62.0332 80.2446C62.5721 80.2446 62.9518 80.4881 63.16 80.9751L67.5935 90.5932L67.5935 81.2186C67.5935 80.5733 67.9242 80.2568 68.5611 80.2568L70.8513 80.2568C71.5004 80.2568 71.8189 80.5733 71.8189 81.2186L71.8189 96.218C71.8189 96.8633 71.5004 97.192 70.8513 97.192L67.667 97.192C67.1281 97.192 66.7485 96.9485 66.5403 96.4615L62.1067 86.8434L62.1067 96.218C62.1067 96.8633 61.7883 97.192 61.1392 97.192L58.8367 97.192C58.1876 97.192 57.8691 96.8633 57.8691 96.218L57.8691 81.2064Z" fill="#007988" fill-opacity="1.000000" fill-rule="nonzero"/>
	<path id="Vector" d="M76.239 97.1677C75.5899 97.1677 75.2715 96.8511 75.2715 96.2059L75.2715 81.2064C75.2715 80.5612 75.6022 80.2446 76.239 80.2446L81.7993 80.2446C83.4649 80.2446 84.9591 80.5977 86.2573 81.316C87.5556 82.0221 88.5598 83.0205 89.2702 84.311C89.9805 85.6016 90.348 87.0625 90.348 88.7183C90.348 90.3741 89.9928 91.8473 89.2702 93.1378C88.5598 94.4162 87.5556 95.4145 86.2573 96.1207C84.9591 96.8268 83.4772 97.192 81.7993 97.192L76.239 97.192L76.239 97.1677ZM81.4319 93.1987C82.7424 93.1987 83.7834 92.8091 84.5427 92.0177C85.302 91.2263 85.6817 90.1184 85.6817 88.7061C85.6817 87.2939 85.302 86.186 84.5427 85.3946C83.7834 84.6032 82.7424 84.2136 81.4319 84.2136L79.8887 84.2136L79.8887 93.1987L81.4319 93.1987Z" fill="#007988" fill-opacity="1.000000" fill-rule="nonzero"/>
	<path id="Vector" d="M20.7832 108.393L25.082 108.393L25.082 108.892L20.7832 108.892L20.7832 108.393ZM20.7832 108.393L21.3221 108.393L21.3221 110L20.7832 110L20.7832 108.393ZM20.8812 108.393L21.0404 108.393C21.1996 108.393 21.3343 108.271 21.4201 108.016C21.5058 107.76 21.5548 107.419 21.5548 106.956L21.5548 103.523L22.0937 103.523L22.0937 107.127C22.0937 107.468 22.0569 107.772 21.9834 108.016C21.91 108.259 21.812 108.442 21.6773 108.576C21.5425 108.709 21.3833 108.77 21.1874 108.77L20.8812 108.77L20.8812 108.393ZM22.0324 103.523L24.6044 103.523L24.6044 104.01L22.0324 104.01L22.0324 103.523ZM24.3104 103.523L24.8493 103.523L24.8493 108.88L24.3104 108.88L24.3104 103.523ZM24.8861 108.393L25.4249 108.393L25.4249 110L24.8861 110L24.8861 108.393Z" fill="#007988" fill-opacity="1.000000" fill-rule="nonzero"/>
	<path id="Vector" d="M35.3707 108.88L35.3707 104.193L35.6524 103.937L32.4436 108.88L31.917 108.88L31.917 103.523L32.4559 103.523L32.4559 108.235L32.2354 108.429L35.383 103.523L35.9096 103.523L35.9096 108.88L35.3707 108.88Z" fill="#007988" fill-opacity="1.000000" fill-rule="nonzero"/>
	<path id="Vector" d="M43.9435 103.523L44.5926 103.523L46.5767 108.88L45.9888 108.88L44.2742 104.083L42.5595 108.88L41.9717 108.88L43.9435 103.523ZM42.878 107.09L45.7194 107.09L45.7194 107.589L42.878 107.589L42.878 107.09Z" fill="#007988" fill-opacity="1.000000" fill-rule="nonzero"/>
	<path id="Vector" d="M52.7129 103.523L53.2518 103.523L53.2518 108.88L52.7129 108.88L52.7129 103.523ZM53.0803 103.523L55.738 103.523L55.738 104.01L53.0803 104.01L53.0803 103.523Z" fill="#007988" fill-opacity="1.000000" fill-rule="nonzero"/>
	<path id="Vector" d="M61.9346 103.523L62.4734 103.523L62.4734 108.88L61.9346 108.88L61.9346 103.523ZM62.2897 105.982L65.4985 105.982L65.4985 106.494L62.2897 106.494L62.2897 105.982ZM65.2168 103.523L65.7557 103.523L65.7557 108.88L65.2168 108.88L65.2168 103.523Z" fill="#007988" fill-opacity="1.000000" fill-rule="nonzero"/>
	<path id="Vector" d="M73.1655 108.709C72.8838 108.551 72.6633 108.332 72.5163 108.04C72.3694 107.748 72.2959 107.395 72.2959 106.968L72.2959 105.447C72.2959 105.033 72.3694 104.68 72.5163 104.375C72.6633 104.083 72.8838 103.852 73.1655 103.706C73.4471 103.547 73.7901 103.474 74.1942 103.474C74.5984 103.474 74.9413 103.547 75.223 103.706C75.5047 103.864 75.7252 104.083 75.8721 104.375C76.0191 104.667 76.0926 105.033 76.0926 105.447L76.0926 106.968C76.0926 107.382 76.0191 107.748 75.8721 108.04C75.7252 108.332 75.5047 108.563 75.223 108.709C74.9413 108.868 74.5984 108.941 74.1942 108.941C73.7778 108.941 73.4471 108.856 73.1655 108.709ZM74.9168 108.271C75.125 108.162 75.272 107.991 75.3822 107.772C75.4924 107.553 75.5414 107.297 75.5414 106.981L75.5414 105.41C75.5414 105.106 75.4924 104.838 75.3822 104.619C75.272 104.4 75.125 104.241 74.9168 104.12C74.7086 104.01 74.4637 103.949 74.182 103.949C73.9003 103.949 73.6553 104.01 73.4471 104.12C73.2389 104.229 73.092 104.4 72.9818 104.619C72.8715 104.838 72.8225 105.094 72.8225 105.41L72.8225 106.981C72.8225 107.285 72.8715 107.553 72.9818 107.772C73.092 107.991 73.2389 108.162 73.4471 108.271C73.6553 108.381 73.9003 108.442 74.182 108.442C74.4637 108.442 74.7209 108.381 74.9168 108.271Z" fill="#007988" fill-opacity="1.000000" fill-rule="nonzero"/>
	<path id="Vector" d="M83.2456 108.685C82.9639 108.527 82.7435 108.283 82.5843 107.991C82.425 107.699 82.3516 107.334 82.3516 106.944L82.3516 105.471C82.3516 105.069 82.425 104.728 82.5843 104.424C82.7435 104.12 82.9639 103.888 83.2456 103.718C83.5273 103.547 83.858 103.474 84.2254 103.474C84.5316 103.474 84.8133 103.535 85.0827 103.657C85.3399 103.779 85.5604 103.961 85.7318 104.193C85.9033 104.424 86.0258 104.692 86.087 104.984L85.5481 104.984C85.4869 104.777 85.3889 104.607 85.2542 104.448C85.1195 104.29 84.9602 104.168 84.7765 104.083C84.5928 103.998 84.4091 103.961 84.2132 103.961C83.9437 103.961 83.711 104.022 83.5151 104.144C83.3191 104.266 83.1599 104.448 83.0497 104.667C82.9394 104.899 82.8782 105.154 82.8782 105.459L82.8782 106.932C82.8782 107.236 82.9394 107.492 83.0497 107.723C83.1599 107.955 83.3191 108.125 83.5151 108.247C83.7233 108.369 83.956 108.429 84.2132 108.429C84.4091 108.429 84.5928 108.393 84.7765 108.308C84.9602 108.222 85.1195 108.113 85.2542 107.955C85.3889 107.796 85.4869 107.614 85.5481 107.407L86.087 107.407C86.0258 107.711 85.9033 107.979 85.7318 108.198C85.5604 108.429 85.3399 108.6 85.0827 108.734C84.8255 108.856 84.5438 108.916 84.2377 108.916C83.858 108.941 83.5273 108.856 83.2456 108.685Z" fill="#007988" fill-opacity="1.000000" fill-rule="nonzero"/>
	<path id="Vector" d="M91.7324 103.523L95.5413 103.523L95.5413 104.01L91.7324 104.01L91.7324 103.523ZM93.3736 103.742L93.9124 103.742L93.9124 108.88L93.3736 108.88L93.3736 103.742Z" fill="#007988" fill-opacity="1.000000" fill-rule="nonzero"/>
	<path id="Vector" d="M105.046 108.88L105.046 104.193L105.327 103.937L102.118 108.88L101.592 108.88L101.592 103.523L102.131 103.523L102.131 108.235L101.91 108.429L105.058 103.523L105.584 103.523L105.584 108.88L105.046 108.88Z" fill="#007988" fill-opacity="1.000000" fill-rule="nonzero"/>
	<path id="Vector" d="M112.81 107.042C112.578 106.908 112.394 106.713 112.272 106.457C112.149 106.201 112.088 105.897 112.088 105.532L112.088 103.511L112.615 103.511L112.615 105.556C112.615 105.921 112.713 106.201 112.908 106.408C113.104 106.615 113.386 106.713 113.741 106.713C114.182 106.713 114.513 106.603 114.746 106.396C114.978 106.177 115.101 105.885 115.101 105.495L115.101 105.069L115.333 105.069L115.333 105.471C115.333 105.848 115.272 106.165 115.137 106.433C115.003 106.701 114.819 106.895 114.562 107.042C114.317 107.188 114.011 107.248 113.656 107.248C113.337 107.236 113.055 107.175 112.81 107.042ZM115.113 103.523L115.652 103.523L115.652 108.88L115.113 108.88L115.113 103.523Z" fill="#007988" fill-opacity="1.000000" fill-rule="nonzero"/>
	<path id="Vector" d="M122.289 103.523L122.828 103.523L122.828 108.88L122.289 108.88L122.289 103.523ZM122.656 103.523L125.755 103.523L125.755 104.01L122.656 104.01L122.656 103.523ZM122.656 105.97L125.339 105.97L125.339 106.469L122.656 106.469L122.656 105.97ZM122.656 108.393L125.755 108.393L125.755 108.892L122.656 108.892L122.656 108.393Z" fill="#007988" fill-opacity="1.000000" fill-rule="nonzero"/>
	<path id="Vector" d="M132.92 108.685C132.639 108.527 132.418 108.283 132.259 107.991C132.1 107.699 132.026 107.334 132.026 106.944L132.026 105.471C132.026 105.069 132.1 104.728 132.259 104.424C132.418 104.12 132.639 103.888 132.92 103.718C133.202 103.547 133.533 103.474 133.9 103.474C134.206 103.474 134.488 103.535 134.758 103.657C135.015 103.779 135.235 103.961 135.407 104.193C135.578 104.424 135.701 104.692 135.762 104.984L135.235 104.984C135.174 104.777 135.076 104.607 134.941 104.448C134.807 104.29 134.647 104.168 134.464 104.083C134.28 103.998 134.096 103.961 133.9 103.961C133.631 103.961 133.398 104.022 133.202 104.144C133.006 104.266 132.847 104.448 132.737 104.667C132.626 104.899 132.565 105.154 132.565 105.459L132.565 106.932C132.565 107.236 132.626 107.492 132.737 107.723C132.847 107.955 133.006 108.125 133.202 108.247C133.41 108.369 133.643 108.429 133.9 108.429C134.096 108.429 134.28 108.393 134.464 108.308C134.647 108.222 134.807 108.113 134.941 107.955C135.076 107.796 135.174 107.614 135.235 107.407L135.762 107.407C135.701 107.711 135.578 107.979 135.407 108.198C135.235 108.429 135.015 108.6 134.758 108.734C134.5 108.868 134.219 108.916 133.912 108.916C133.533 108.941 133.214 108.856 132.92 108.685Z" fill="#007988" fill-opacity="1.000000" fill-rule="nonzero"/>
	<path id="Vector" d="M142.081 103.523L142.62 103.523L142.62 108.88L142.081 108.88L142.081 103.523ZM142.448 105.97L143.832 105.97L143.832 106.469L142.448 106.469L142.448 105.97ZM143.306 106.019L145.327 103.523L145.976 103.523L143.771 106.287L143.306 106.019ZM143.306 106.408L143.771 106.128L146.208 108.88L145.51 108.88L143.306 106.408Z" fill="#007988" fill-opacity="1.000000" fill-rule="nonzero"/>
	<path id="Vector" d="M155.786 108.88L155.786 104.193L156.08 103.937L152.871 108.88L152.345 108.88L152.345 103.523L152.871 103.523L152.871 108.235L152.663 108.429L155.811 103.523L156.325 103.523L156.325 108.88L155.786 108.88Z" fill="#007988" fill-opacity="1.000000" fill-rule="nonzero"/>
	<path id="Vector" d="M166.417 108.88L166.417 104.193L166.711 103.949L163.502 108.892L162.976 108.892L162.976 103.535L163.514 103.535L163.514 108.247L163.294 108.429L166.442 103.535L166.956 103.535L166.956 108.892L166.417 108.892L166.417 108.88ZM166.197 102.013C166.197 102.366 166.086 102.646 165.878 102.841C165.658 103.036 165.364 103.133 164.96 103.133L164.935 103.133C164.543 103.133 164.237 103.036 164.029 102.841C163.808 102.646 163.71 102.366 163.71 102.013L164.188 102.025C164.188 102.245 164.249 102.415 164.384 102.537C164.519 102.659 164.702 102.719 164.935 102.719L164.96 102.719C165.205 102.719 165.388 102.659 165.511 102.537C165.633 102.415 165.707 102.245 165.707 102.025L166.197 102.013Z" fill="#007988" fill-opacity="1.000000" fill-rule="nonzero"/>
	<path id="Vector" d="M180.954 103.523L181.493 103.523L181.493 108.88L180.954 108.88L180.954 103.523ZM181.211 108.393L185.057 108.393L185.057 108.892L181.211 108.892L181.211 108.393ZM184.163 103.523L184.702 103.523L184.702 108.88L184.163 108.88L184.163 103.523ZM184.751 108.393L185.29 108.393L185.29 110L184.751 110L184.751 108.393Z" fill="#007988" fill-opacity="1.000000" fill-rule="nonzero"/>
	<path id="Vector" d="M191.781 103.523L192.32 103.523L192.32 108.88L191.781 108.88L191.781 103.523ZM192.149 103.523L195.247 103.523L195.247 104.01L192.149 104.01L192.149 103.523ZM192.149 105.97L194.831 105.97L194.831 106.469L192.149 106.469L192.149 105.97ZM192.149 108.393L195.247 108.393L195.247 108.892L192.149 108.892L192.149 108.393Z" fill="#007988" fill-opacity="1.000000" fill-rule="nonzero"/>
	<path id="Vector" d="M201.628 103.523L202.167 103.523L202.167 108.88L201.628 108.88L201.628 103.523ZM201.995 105.982L205.204 105.982L205.204 106.494L201.995 106.494L201.995 105.982ZM204.922 103.523L205.461 103.523L205.461 108.88L204.922 108.88L204.922 103.523Z" fill="#007988" fill-opacity="1.000000" fill-rule="nonzero"/>
	<path id="Vector" d="M211.658 103.523L215.455 103.523L215.455 104.01L211.658 104.01L211.658 103.523ZM213.287 103.742L213.826 103.742L213.826 108.88L213.287 108.88L213.287 103.742Z" fill="#007988" fill-opacity="1.000000" fill-rule="nonzero"/>
	<path id="Vector" d="M221.518 103.523L222.056 103.523L222.056 108.88L221.518 108.88L221.518 103.523ZM221.897 106.311L223.624 106.311C223.832 106.311 224.016 106.262 224.175 106.165C224.334 106.068 224.457 105.934 224.543 105.763C224.628 105.593 224.677 105.398 224.677 105.167C224.677 104.935 224.628 104.74 224.543 104.558C224.457 104.387 224.334 104.253 224.175 104.156C224.016 104.059 223.832 104.01 223.624 104.01L221.897 104.01L221.897 103.523L223.6 103.523C223.918 103.523 224.2 103.596 224.445 103.73C224.69 103.864 224.886 104.059 225.008 104.302C225.143 104.546 225.216 104.838 225.216 105.167C225.216 105.495 225.143 105.775 225.008 106.019C224.873 106.262 224.69 106.457 224.445 106.591C224.2 106.725 223.918 106.798 223.6 106.798L221.897 106.798L221.897 106.311Z" fill="#007988" fill-opacity="1.000000" fill-rule="nonzero"/>
	<path id="Vector" d="M116.142 41.7111C111.39 37.036 104.017 36.5733 90.1284 36.5733C86.05 36.5733 85.8418 36.8412 85.8418 40.9441C85.8418 45.0227 86.0867 45.2175 90.0304 45.2175C93.6556 45.2175 96.7909 45.254 99.4731 45.3758C101.188 43.0504 103.943 41.5285 107.054 41.5285C112.235 41.5285 116.436 45.7167 116.436 50.8545C116.436 53.9712 114.892 56.7227 112.529 58.4151C112.688 61.3736 112.725 64.819 112.725 68.6419C112.725 71.3691 112.81 71.9413 116.301 71.9413L118.248 71.9413C121.273 71.9413 121.433 71.43 121.433 68.4837C121.445 54.8722 120.992 46.4837 116.142 41.7111Z" fill="#007988" fill-opacity="1.000000" fill-rule="nonzero"/>
	<path id="Vector" d="M107.067 45.8019C104.25 45.8019 101.972 48.0664 101.972 50.8666C101.972 53.6669 104.25 55.9314 107.067 55.9314C109.883 55.9314 112.161 53.6669 112.161 50.8666C112.161 48.0664 109.883 45.8019 107.067 45.8019Z" fill="#51B1E9" fill-opacity="1.000000" fill-rule="nonzero"/>
	<path id="Vector" d="M117.048 0C112.945 0 112.749 0.243504 112.749 4.16381C112.749 7.76758 112.712 10.8843 112.59 13.5506C114.929 15.2551 116.46 17.9945 116.46 21.0869C116.46 26.2369 112.247 30.4128 107.078 30.4128C103.955 30.4128 101.188 28.8788 99.4729 26.5291C96.4968 26.6873 93.043 26.7239 89.1851 26.7239C86.4417 26.7239 85.8661 26.8091 85.8661 30.2789L85.8661 32.2147C85.8661 35.2219 86.3805 35.3802 89.3443 35.3802C103.061 35.3802 111.5 34.9297 116.301 30.1085C121.004 25.3846 121.469 18.0553 121.469 4.24904C121.445 0.206978 121.175 0 117.048 0Z" fill="#007988" fill-opacity="1.000000" fill-rule="nonzero"/>
	<path id="Vector" d="M112.161 21.0869C112.161 18.2867 109.883 16.0221 107.067 16.0221C104.25 16.0221 101.972 18.2867 101.972 21.0869C101.972 23.8871 104.25 26.1516 107.067 26.1516C109.883 26.1516 112.161 23.8871 112.161 21.0869Z" fill="#51B1E9" fill-opacity="1.000000" fill-rule="nonzero"/>
	<path id="Vector" d="M153.79 36.5733C139.902 36.5733 132.529 37.036 127.777 41.7111C122.927 46.4837 122.474 54.8722 122.474 68.508C122.474 71.4543 122.633 71.9657 125.658 71.9657L127.605 71.9657C131.096 71.9657 131.181 71.3935 131.181 68.6663C131.181 64.8312 131.218 61.3857 131.377 58.4394C129.014 56.7471 127.471 53.9956 127.471 50.8788C127.471 45.741 131.684 41.5528 136.852 41.5528C139.963 41.5528 142.718 43.0747 144.433 45.4001C147.115 45.2784 150.263 45.2418 153.876 45.2418C157.819 45.2418 158.064 45.047 158.064 40.9685C158.077 36.8412 157.868 36.5733 153.79 36.5733Z" fill="#007988" fill-opacity="1.000000" fill-rule="nonzero"/>
	<path id="Vector" d="M136.864 45.8019C134.048 45.8019 131.77 48.0664 131.77 50.8666C131.77 53.6669 134.048 55.9314 136.864 55.9314C139.681 55.9314 141.959 53.6669 141.959 50.8666C141.959 48.0664 139.681 45.8019 136.864 45.8019Z" fill="#51B1E9" fill-opacity="1.000000" fill-rule="nonzero"/>
	<path id="Vector" d="M154.757 26.7239C150.899 26.7239 147.433 26.6873 144.457 26.5291C142.755 28.8788 139.987 30.4128 136.851 30.4128C131.671 30.4128 127.47 26.2247 127.47 21.0869C127.47 17.9945 129.001 15.2551 131.34 13.5506C131.218 10.8843 131.181 7.7554 131.181 4.16381C131.181 0.243504 130.985 0 126.882 0C122.755 0 122.485 0.206974 122.485 4.26121C122.485 18.0675 122.938 25.3968 127.641 30.1207C132.442 34.9419 140.881 35.3924 154.598 35.3924C157.562 35.3924 158.076 35.2341 158.076 32.2269L158.076 30.2911C158.076 26.8213 157.5 26.7239 154.757 26.7239Z" fill="#007988" fill-opacity="1.000000" fill-rule="nonzero"/>
	<path id="Vector" d="M136.864 16.01C134.048 16.01 131.77 18.2745 131.77 21.0747C131.77 23.8749 134.048 26.1395 136.864 26.1395C139.681 26.1395 141.959 23.8749 141.959 21.0747C141.959 18.2745 139.681 16.01 136.864 16.01Z" fill="#51B1E9" fill-opacity="1.000000" fill-rule="nonzero"/>
</svg>
